<svg width="1336" height="356" xmlns="http://www.w3.org/2000/svg"><g id="Artboard" stroke="none" stroke-width="1" fill="none" fill-rule="evenodd"><g id="provincie-oost-vlaanderen" transform="translate(.092 .892)" fill-rule="nonzero"><path d="M298.008 124.008c-7.3 3.7-13.8 8.6-20.5 13.2-29.7 20.2-58.4 41.8-87.1 63.4-13.5 10.2-26.8 20.6-40.1 31-7.9 6.2-15.6 12.8-23.4 19.2-.8.6-1.5 1.4-2.3 1.9-2.6 1.8-5.4 3.8-8.7 2.2-3.2-1.5-3.3-5-3.3-7.9.1-12 0-24 .7-36 1.8-32 6.4-63.5 15.8-94.3 6.4-20.9 14.8-41 27-59.3 21-31.7 50.5-49.5 87.9-55.7 32.3-5.4 61.3 2.2 88.2 20 7.4 4.9 13.7 11.1 18.8 18.3 2.2 3 3.7 3.9 7.5 2.3 25.5-10.4 50.9-21 77.1-29.6 4.2-1.4 8.4-3.2 13.2-2.8 0 2.7-3.2 2.8-3.8 4.9-.2.2-.3.4-.5.6.4 0 .8.1 1.2.1 14-2.7 28-5.5 42.1-8 5.2-1 10.5-1.6 15.8-2 2.3-.2 5.6-.9 6.3 2.3.6 3-2.6 3.4-4.7 4.2-16.5 5.8-33.4 9.9-50.2 14.9-12.5 3.7-25.1 7.5-37.6 11.2-.9.3-1.5.6-1.8 1.5 1.8.8 3.5.1 5.2-.4 20.4-5.5 40.4-12.3 61.1-16.8 6.4-1.4 12.8-3 19.8-1.4-1.4 3.3-5 3.3-7.4 7.1 22.4-3.1 43.5-7.1 65.6-8.3-1.1 3.4-3.8 3-5.9 5.3 28.1-1.9 55.4-3.7 82.7-4.4 27.3-.7 54.5-.6 81.5 3.6-2.4 2.2-5 1.9-7.5 1.9-20.8 0-41.6-1.6-62.4-1.2-42.8.9-85.4 4.5-127.7 10.6-52.8 7.5-101.9 24.9-149.5 47.3-2 .9-3.2 1.7-2.9 4.3 3.6 30.1-1.2 59.1-11.3 87.4-11.2 31.3-30 57.8-50.5 83.4-10.8 13.6-22.9 26.1-36.3 37-26.2 21.4-55.5 37-87.4 48.3-25.4 8.9-51.1 13.5-77.9 10.6-26.2-2.8-50.4-11.2-70.1-29.1-16.8-15.3-27-34.8-31.7-57.1-6.1-28.6-2.4-56.5 6.4-83.7 18.7-57.5 54.8-101.2 107.9-130.6 4.2-2.3 8.5-4.8 13.6-5.2-8.8 6.6-18.4 11.9-26.7 19-.6.5-1.3.9-1.9 1.4 1.1.6 2.1.6 3.1-.3.6-.2 1.6-.7 1.9-.4 1.2 1-.1 1.8-.6 2.3-4.7 4.7-9.6 9.2-14.3 13.9-4.2 4.2-8.3 8.5-13.1 13.5 7.3.4 4.6 3.5 2.5 5.8-5.8 6.6-11.9 13-17.1 20.2-1.5 2-4.7 5.5-3 6.5 3.2 1.8 4-2.7 5.6-4.7 4.7-5.6 9.5-11.2 15.2-15.8 1.2-1 2.6-2.9 4.2-1.1 1.2 1.3-.3 2.7-1.4 3.8-17.8 18.3-32.1 39-43 62.1-3.2 6.8-6.1 13.7-5.7 21.5 13.2-21.6 21.7-46.6 45-60.9-16.4 20.9-30.5 43-38.7 70 6.8-5.3 10.1-13.1 19-15.3-5.4 9.3-9.1 18.3-12.7 27.4-2.2 5.5-3.5 11.2-4.7 16.8-2 9.4-4.2 19-3.3 28.8 1.1 13.3 3.6 26.3 12.3 37 9.4 11.5 22.4 15.8 36.8 16.2 20.8.7 40.1-5.6 58.5-14.5 43.8-21.1 79-52.7 108.1-91.2 19.4-25.8 31.8-55.2 41.7-85.7 0-.4 0-.8-.1-1.2-.2.2-.4.4-.5.7Zm-219.2-25.2c-.6.6-2 1.1-1.1 1.9.8.7 1.6-.6 2.2-1.2.4-.4.9-1 .2-1.4-.8-.6-1 .2-1.3.7Zm229.6-36.9c0-10.9-7.4-21.2-17.6-24.9-23.8-8.6-45-3.3-62.6 13.8-25.9 25.2-42 56.4-50.8 91.4-.4 1.8-.8 3.7 1.1 5 1.9 1.3 3.6.3 5.1-.6 4.4-2.7 8.7-5.5 13-8.4 36.4-24.5 71.2-51.4 109.6-72.9 1.2-.8 2.7-1.4 2.2-3.4Z" id="XMLID_403_" fill="#D0702B"/><path d="M486.208 245.108c-.1 9.9-1.3 19.5-6 28.5-6.6 12.7-17.6 17.5-31.3 17.4-13.4-.1-24.2-5.4-29.8-18-8-17.7-8-35.9-.7-53.8 6-14.6 18.7-20.8 36.9-19.2 14.1 1.2 24.8 10.8 28.7 25.9 1.6 6.3 2.2 12.7 2.2 19.2Zm-54.3-.3c0 7-.2 14 1.8 20.8 2.7 9.3 7.1 12.7 16.5 12.6 8.8-.1 13.7-3.8 15.8-12.8 3-12.8 3-25.8.6-38.6-1.8-9.8-7.2-13.7-17.3-13.5-9.1.1-14.1 4.5-16.2 13.7-1.4 5.8-1.3 11.8-1.2 17.8Z" id="XMLID_400_" fill="#555"/><path d="M1066.008 221.008c0-8.7.1-16.8-.1-25-.1-3 .8-3.9 3.9-3.9 12.2-.1 12.2-.2 12.2 12.1 0 26.6 0 53.3-.1 79.9 0 1.6 1.6 4.8-1.6 4.8-3.4 0-7.3 2-10.1-1.7-1.3-1.7-1.7-4-3.6-5.4-3.9 2.6-5.6 7.6-11.2 8.6-12 2-22.9-3-27.1-14.4-5.4-14.5-5.4-29.4 0-43.9 5.2-13.7 20.5-20.7 37.7-11.1Zm0 32.5v-17c0-1.4.3-2.8-1.2-4-8-6.9-20.7-2.9-22.7 7.3-1.5 7.7-1.1 15.6-.7 23.4.2 3.8.9 7.6 2.7 11 2.6 4.7 7.8 6.8 13.3 5.5 5.8-1.4 8.6-4.9 8.6-10.8v-15.4Z" id="XMLID_397_" fill="#555"/><path d="M738.408 273.108c2.6-8.4 3-17.3 5.6-25.7 4.3-14 8.4-28 12.4-42.1.9-3.4 2.4-4.5 5.9-4.2 3.6.3 7.3.1 11.6.1-3.4 10.8-6.7 21.2-10 31.6-5.6 17.4-11.3 34.8-16.7 52.2-.9 2.9-2 4.2-5.4 4.2-11.2-.2-11.3 0-14.9-10.9-8-24.1-15.8-48.3-23.9-72.4-1.2-3.7-1-4.8 3.3-4.8 13.2.1 13.3-.1 17 12.6 5.5 19.5 13.1 38.7 15.1 59.4Z" id="XMLID_396_" fill="#555"/><path d="M870.008 258.008c0 5.8.1 11.7 0 17.5-.1 3 .8 4.8 4.1 4.9 1.4 0 3.3-.2 3.1 2.1-.3 2.3 1.4 4.8-1.8 6.6-5.9 3.3-13.8 2-17.6-3.5-1.9-2.8-3.1-3.7-5.6-.4-5.2 7-12.8 6.3-20 5.3-7-1-12.1-5.2-13.8-12.2-3.5-15 .5-25.5 16.5-29 5-1.1 10.2-1.8 15.3-2.3 2.8-.3 3.9-1.2 3.9-4.3 0-10.3-3.8-13.9-14.1-12.3-4.9.7-9.8 1.9-14.5 3.6-2.1.8-3.2.7-3.6-2.1-1.7-11.2-3.7-8.7 7.2-12.7 6.9-2.5 14.2-3.3 21.6-2.4 10.8 1.3 16.4 6.5 18.3 17.2.3 1.8.7 3.6.8 5.4.1 6.2 0 12.3 0 18.5.1.1.1.1.2.1Zm-16 8.3v-8c0-1.5-.2-2.7-2.1-2.4-4.7.9-9.6.8-14.1 2.9-5 2.3-5.5 6.7-5.3 11.3.2 4.2 1.5 7.7 6.1 9.2 8.9 2.9 15.4-1.5 15.4-10.7v-2.3Z" id="XMLID_393_" fill="#555"/><path d="M922.408 281.808c-3.1 5.9-7.7 8.7-13.8 9.1-7.8.5-15.4-.2-20-7.3-5.1-7.7-4.9-16.2-1.3-24.4 2.3-5.3 7.4-7.5 12.5-9.1 5.9-1.8 12-2.7 18.2-3.2 2.9-.2 3.9-1.3 4-4.3 0-10-3.9-13.7-13.9-12.4-5.1.7-10.1 1.9-15 3.7-2.4.9-3 .2-3.6-2.1-2.3-9.2-2.2-9.8 6.7-12.6 6.9-2.2 13.9-3.4 21.1-2.6 12.6 1.4 18.5 7.5 19.7 20.3 1.1 11.8.3 23.6.5 35.4.1 4-.7 8.4 5.6 8.1 2.2-.1 1.7 2.1 1.8 3.4.2 2.2.1 4.1-2.4 5.4-6.3 3.1-13.3 1.6-17.5-4.1-.7-.8-1.4-1.7-2.6-3.3Zm-.6-15.9c0-2.5-.1-5 0-7.5.1-2-.7-2.8-2.6-2.4-4.4.7-8.9.9-13.1 2.6-4.7 1.9-6.4 5.7-5.9 12.4.4 4.4 2.4 7.6 6.9 8.7 9 2.3 14.8-2.2 14.8-11.3-.1-.8-.1-1.6-.1-2.5Z" id="XMLID_390_" fill="#555"/><path d="M496.908 253.708c-.4-7.1.6-14.2 3.6-20.8 5-11.3 14.1-16.4 26.2-16.4 12.4 0 21.8 6.2 25.9 17.5 4.7 13 4.7 26.2 0 39.1-4.5 12.6-15.2 18.8-29.2 17.8-12.8-.9-22-9.4-25.3-23.2-1.1-4.5-1.4-9.1-1.2-14Zm42.2-.1c0-5 .1-10-1.1-14.9-1.6-6.7-4.9-9.6-11.3-9.8-6.9-.2-10.6 2.3-12.2 9.2-2.3 10.3-2.3 20.8.3 31.1 1.6 6.6 5.6 9.5 11.6 9.5 5.9-.1 9.7-3.3 11.4-9.8 1.5-4.9 1.4-10.1 1.3-15.3Z" id="XMLID_387_" fill="#555"/><path d="M1247.008 258.808c-5.5 0-11 .1-16.5 0-2 0-2.8.4-2.8 2.8-.1 11.7 5.1 16.9 16.7 16.5 5.1-.2 9.9-1.5 14.5-3.4 2.6-1.1 3.1-.2 3.6 2 2.3 8.9 1.9 9.8-7.1 12.3-4.7 1.3-9.4 2.1-14.3 2-15.3-.2-25.1-7.7-28.6-22.7-2.8-11.7-2.7-23.5 1.8-34.9 4.9-12.7 15.8-18.4 30.6-16.6 11.6 1.4 19.1 9.3 20.8 22.6.7 5.1.6 10.3 1 15.4.3 3-.7 4.2-3.9 4-5.1-.1-10.4 0-15.8 0Zm-7.1-11h2c10.9 0 12-1.5 8.6-12.2-1.7-5.4-5.1-7.8-10.8-7.6-6.9.2-10.6 4.8-11.7 14.2-.5 4-.1 6.5 4.9 5.7 2.3-.4 4.7-.1 7-.1Z" id="XMLID_384_" fill="#555"/><path d="M1132.308 258.808c-5.3 0-10.7.1-16-.1-2.9-.1-3.6.9-3.4 3.7.6 11.4 5.4 16 16.7 15.6 5.1-.2 9.9-1.5 14.5-3.4 2.3-.9 3.1-.5 3.7 1.9 2.2 9.3 2 9.7-7.2 12.3-5.5 1.6-11.1 2.3-16.8 1.9-11.2-.9-19.9-5.7-24-16.6-5.4-14.4-5.6-29.1 1-43.2 5.3-11.5 16.4-16.4 30.6-14.2 10.4 1.6 17.5 9.3 19.5 21.2 1 5.8.9 11.6 1 17.4 0 2.8-1.2 3.3-3.6 3.3-5.3.2-10.7.2-16 .2Zm-7.5-11h9c1.1 0 2.7.4 2.9-1.2.5-5.4.3-10.8-3.1-15.2-2.7-3.6-6.8-3.9-10.9-3.1-6.6 1.3-8.1 6.6-9.1 12.2-1.3 7.3-1.3 7.3 5.8 7.3h5.4Z" id="XMLID_381_" fill="#555"/><path d="M972.708 227.408c5.2-8.8 12.5-11.9 21.8-10.7 8.6 1.1 13.5 5.5 15.5 13.9 1 4.3 1 8.6 1 12.9 0 13.8-.1 27.7.1 41.5 0 3.3-1 4.1-4.2 4.1-11.9 0-11.9.1-11.9-11.7v-37c0-9.1-3.3-11.9-12.4-10.5-1.6.3-3.2.8-4.8 1.3-3.6 1-5 3.1-4.9 7.2.3 15.5 0 31 .2 46.5 0 3.6-1 4.4-4.5 4.3-11.6-.1-11.6 0-11.6-11.5 0-18.2 0-36.3.1-54.5 0-1.7-1.5-4.9 1.4-4.9 3.4 0 7.8-2.4 10.3 2.1 1.2 1.9 2.3 4 3.9 7Z" id="XMLID_380_" fill="#555"/><path d="M1296.608 227.008c4.3-4.9 7.9-9.6 15-10.3 13.8-1.4 22.4 4.5 23.1 18.3.8 17.1.3 34.3.4 51.4 0 1.9-.6 2.8-2.6 2.6h-.5c-13 .8-13 .8-13-12.1v-37c0-8.3-3.1-11.2-11.3-10.3-1.2.1-2.3.3-3.4.6-6.6 1.8-7.2 2.5-7.2 9.5 0 15.2-.1 30.3.1 45.5 0 3-.7 3.9-3.8 3.9-12.2 0-12.2.2-12.2-11.9 0-18 0-36 .1-54 0-1.7-1.4-4.9 1.3-4.9 3.4 0 7.7-2.5 10.4 2 1 2 2.2 4.2 3.6 6.7Z" id="XMLID_379_" fill="#555"/><path d="M586.608 291.208c-5.4-.2-10.6-1.2-15.7-2.8-3.5-1.1-5.1-2.4-4.1-6.7 1.5-6.4 1.1-6.6 7.5-4.6 4.7 1.4 9.4 2.1 14.3 1.7 5.8-.4 9-3 9.5-7.7.6-5.2-1.1-7.5-7.3-9.4-3.7-1.1-7.4-1.8-11.1-3-10.3-3.3-14.5-9.8-14.1-21.8.3-10.3 5.4-16.9 15.4-19.4 8.6-2.2 17.1-1.3 25.6 1.2 3.5 1 4.5 2.8 3.5 6.1-.4 1.1-.7 2.3-.8 3.4-.1 3.6-1.7 4-4.8 2.9-5.1-1.8-10.4-2-15.8-1.6-4.4.3-7.9 1.7-8.4 6.7-.5 4.8 1.9 7.5 6.3 8.7 3.4.9 6.7 1.8 10.1 2.7 12.6 3.4 17.1 9.4 16.7 22.2-.3 11.2-6.4 18-18.2 20.3-3 .7-5.8.8-8.6 1.1Z" id="XMLID_378_" fill="#555"/><path d="M644.608 253.108v20c0 4.2 2 6.1 6.1 6 1.5-.1 3 0 4.5 0 5.7 0 7 1.4 6.6 7.2-.1 1.8-1.3 2.2-2.5 2.6-4.6 1.4-9.4 2.4-14.2 2.1-10-.8-15.4-6-16.2-16.2-1.1-13.4-.4-26.9-.4-40.4 0-3.7-.7-5.7-4.9-5-3 .5-3.5-1-3.6-3.7 0-7.1-.2-7.2 6.8-7.4 2.2 0 3.3-.7 4-2.7 1.6-4.5 3.7-8.9 5.1-13.5 1.1-3.7 3.8-3 6.3-3 3.4.1 1.9 2.8 2.2 4.5.1.3 0 .7 0 1 .1 4.3-1.4 9.7.7 12.7 2 2.9 7.7.8 11.8 1 2.2.1 3 .8 2.8 2.9-.1 1.7-.2 3.3 0 5 .3 2.7-.9 3.3-3.4 3.4-3.9.2-9-1.9-11.2 1.1-1.8 2.6-.6 7.4-.6 11.2 0 3.5.1 7.3.1 11.2Z" id="XMLID_377_" fill="#555"/><path d="M802.608 241.008c0 14.5-.1 29 .1 43.5 0 3.3-.5 4.6-4.3 4.6-11.9-.1-11.9.1-11.9-11.9 0-26.7.1-53.3-.1-80 0-4.2 1.2-5.3 5.3-5.2 10.9.3 10.9.1 10.9 11v38Z" id="XMLID_376_" fill="#555"/><path d="M1166.008 253.408c0-10.5.1-21-.1-31.5 0-2.8.4-3.8 3.7-4.1 5.5-.5 8.8 1.1 10.4 6.5 1 3.5 2.7 3.3 4.3.4 4.3-7.8 11.2-9.2 19.2-7.7 2.9.6 4.5 2 3.5 5.2-.1.3-.1.7-.1 1-.6 2.9-.4 6.5-2.1 8.6-1.9 2.4-5.3-.7-8.1-.2-1.6.3-3.3.1-5 .3-8.8 1.1-9.7 2.1-9.7 10.7 0 14.1-.1 28.3.1 42.4 0 3.3-.9 4.1-4.2 4.1-11.9 0-11.9.1-11.9-11.7v-24Z" id="XMLID_375_" fill="#555"/><path d="M483.508 114.208h7c17.1.3 21.9 12.4 18.5 25.7-1.9 7.7-8.8 11.8-18.6 12.1-8.8.3-8.8.3-8.8 9.1v3.5c0 4.9-5.4 7.9-9.8 5.5-1.6-.9-1.1-2.3-1.1-3.6 0-16.1 0-32.3-.1-48.4 0-3.1 1-4.2 4-4 3.1.2 6 .1 8.9.1Zm-1.8 19.1v7.6c0 1.6.1 2.8 2.3 3.3 9.3 2 14.2-1.8 14-11.5-.1-8-2.5-9.8-11.4-10.1-8.1-.2-3.9 5.6-4.9 8.9-.1.6 0 1.2 0 1.8Z" id="XMLID_372_" fill="#555"/><path d="M587.008 148.008c-.1 4.3-.6 8.5-2.3 12.5-3.3 7.9-8.6 11.1-17.9 10.9-7.8-.2-13.6-4.3-16.1-11.9-2.2-6.8-2.4-13.7-.7-20.6 2.5-10.1 9-15.2 18.6-15 9.3.3 15.4 5.5 17.5 15.5.6 2.8.6 5.7.9 8.6Zm-10.7-.1c-.4-3.5 0-7-1-10.4-1.1-3.7-3.4-5.4-7.3-5.4-3.7 0-6.4 1.4-7.2 5.3-1.6 6.9-1.6 13.9.2 20.7 1 3.7 3.6 5.3 7.3 5.3 3.6 0 5.6-1.9 6.8-5.2 1.2-3.3.8-6.8 1.2-10.3Z" id="XMLID_369_" fill="#555"/><path d="M783.808 151.208c-1.8 0-3.6-.4-5.2.1-2.3.8-6.5-2.7-6.6 2.6-.1 4.6 1.5 8.5 6.9 9.2 3.7.5 7.3-.1 10.9-1.2 1.4-.4 3.6-2.5 4.1.6.3 2.1 2.5 4.7-.8 6.7-12.8 7.9-29.1.6-31.6-14.1-1-6.3-.9-12.4 1-18.4 2.7-8.8 9.5-13.3 18.5-12.7 8.6.6 13.1 4.9 15 14.3 2.5 12.6 2.3 12.9-12.2 12.9Zm-4.8-6.7c2.5-1.8 7.6 2.6 7.7-3.9.1-5.8-2.6-9.1-7.2-9.1s-7.3 3.4-7.5 9.1c-.3 6.4 4.7 2.2 7 3.9Z" id="XMLID_366_" fill="#555"/><path d="M657.908 147.508c0-6-.1-12.1.1-18.1 0-1.7-1.1-4.3 2-4.6 2.2-.2 4.8-.9 6 2.1 1.2 3 2.6 3.2 4.8.6 4-4.6 9.4-4.3 14.5-2.8 4.9 1.5 7 5.8 7.1 10.4.4 10.7.2 21.4.2 32.1 0 5-3.8 2.5-6 2.9-2.4.4-4.5.4-4.4-3.4.3-9.1 0-18.3.1-27.4.1-4.5-1.4-7.2-6.3-6.8-4.2.4-8.1.7-7.8 6.8.4 8.9-.1 17.9.2 26.8.2 4.2-1.9 4.3-4.9 4.1-2.8-.2-6 .9-5.6-4.1.3-6.2 0-12.4 0-18.6Z" id="XMLID_365_" fill="#555"/><path d="M628.308 125.308c-4.3 14.1-8.7 28.2-12.9 42.3-1.1 3.6-3.9 2.5-6.2 2.6-2.4 0-5 .9-6.1-2.7-4.1-13.3-8.3-26.7-12.5-40-.6-2-.3-2.8 1.9-2.9 4.7-.2 8.8-.7 10 6.1 1.9 10.2 5.7 19.9 6.9 30.4 1.8-10 4.4-19.6 7.3-29.3 2.5-7.9 2.3-8 11.6-6.5Z" id="XMLID_361_" fill="#555"/><path d="M701.108 147.008c-.3-2.7.3-5.8 1-8.8 2.8-12.6 17.3-18.8 28.6-12.4 3.4 1.9 1.1 4.4.8 6.6-.4 3.2-2.4 1.5-3.9 1.3-1.7-.2-3.4-.8-5.1-1-6.8-.5-9.1 1.4-10.2 8.1-.6 4-.7 8.1-.2 12.1 1.2 9.5 5 11.9 14.3 9.6 1.7-.4 4.5-4.2 5.9.5 1.1 3.6.6 6.1-3.8 7.3-17.1 4.4-27.4-2.9-27.4-23.3Z" id="XMLID_360_" fill="#555"/><path d="M528.808 130.808c3.3-5 7.1-7.8 12.9-6.8 3.4.6 3.6 2.4 2.8 4.9-.7 2.2.6 6-4.1 5-1.7-.4-3.5-.2-5.2-.1-4.2.3-6.6 1.9-6.4 6.9.4 8.5-.1 17.1.2 25.7.2 4.5-2.5 3.9-5.2 3.9-2.6-.1-5.3.9-5.2-3.8.3-12.1 0-24.1.2-36.2 0-1.9-1.7-5 2.1-5.6 2.9-.5 5.4-.1 6.4 3.4 0 .7.6 1.3 1.5 2.7Z" id="XMLID_345_" fill="#555"/><path d="M683.708 256.208c-3.8 0-7.7-.2-11.5.1-2.7.2-3.3-.9-3.3-3.4-.3-11.4-.4-11.4 10.9-11.4 5.2 0 10.3.1 15.5-.1 2.9-.1 3.6.9 3.7 3.7.2 11.1.3 11.1-10.7 11.1h-4.6Z" id="XMLID_337_" fill="#555"/><path d="M741.108 147.408c0-6.2.3-12.4-.1-18.7-.3-4.9 2.8-4 5.7-4.1 2.9-.1 5.2-.2 5.1 4-.2 12.6-.2 25.3 0 37.9.1 4.7-2.8 3.7-5.4 3.7-2.5 0-5.6 1.1-5.4-3.6.3-6.4.1-12.8.1-19.2Z" id="XMLID_334_" fill="#555"/><path d="M635.608 147.308c0-6.2.3-12.5-.1-18.7-.3-5 3-3.8 5.7-3.9 3-.2 5.1-.1 5 4.1-.3 12.6-.3 25.3 0 37.9.1 4.8-3 3.5-5.4 3.6-2.6.1-5.5.9-5.3-3.7.3-6.5.1-12.9.1-19.3Z" id="XMLID_333_" fill="#555"/><path d="M640.308 106.908c4.3.2 6.7 2.2 6.7 6 0 3.6-2.2 5.6-5.9 5.7-4 .1-6.3-2.1-6.4-5.9 0-3.4 2.4-5.4 5.6-5.8Z" id="XMLID_329_" fill="#555"/><path d="M746.708 107.008c3.5.4 5.7 2.2 5.7 5.9 0 4-2.3 5.9-6.2 5.8-3.7-.1-5.7-2-5.7-5.8 0-4 2.4-5.8 6.2-5.9Z" id="XMLID_328_" fill="#555"/><path d="M79.908 99.508c-.6.7-1.4 2-2.2 1.2-.9-.9.6-1.3 1.1-1.9.3.2.7.4 1.1.7Z" id="XMLID_325_" fill="#D0702B"/><path d="M105.408 68.408c-1 .8-2 .9-3.1.3.6-.5 1.3-.9 1.9-1.4.4.4.8.7 1.2 1.1Z" id="XMLID_324_" fill="#D0702B"/><path d="M78.808 98.808c.3-.4.5-1.2 1.3-.7.7.5.3 1-.2 1.4-.4-.3-.8-.5-1.1-.7Z" id="XMLID_323_" fill="#D0702B"/><path d="M298.008 124.008c.2-.2.4-.5.6-.7 0 .4 0 .8.1 1.2-.4-.1-.6-.3-.7-.5Z" id="XMLID_322_" fill="#D0702B"/><path d="M445.508 15.508c-.4 0-.8-.1-1.2-.1.2-.2.3-.4.5-.6l.7.7Z" id="XMLID_321_" fill="#D0702B"/></g></g></svg>