<?xml version="1.0" standalone="no"?>
<!DOCTYPE svg PUBLIC "-//W3C//DTD SVG 20010904//EN"
 "http://www.w3.org/TR/2001/REC-SVG-20010904/DTD/svg10.dtd">
<svg version="1.0" xmlns="http://www.w3.org/2000/svg"
 width="700.000000pt" height="700.000000pt" viewBox="0 0 700.000000 700.000000"
 preserveAspectRatio="xMidYMid meet">
<metadata>
Created by potrace 1.14, written by Peter Selinger 2001-2017
</metadata>
<g transform="translate(0.000000,700.000000) scale(0.100000,-0.100000)"
fill="#000000" stroke="none">
<path d="M3270 6994 c-19 -2 -84 -9 -145 -15 -746 -74 -1494 -423 -2044 -954
-293 -283 -509 -573 -691 -928 -221 -431 -344 -867 -381 -1347 -10 -143 -9
-463 2 -474 3 -3 476 -5 1050 -4 l1044 3 -46 27 c-114 67 -220 198 -264 325
-137 392 110 795 520 852 110 16 249 -5 337 -50 20 -10 41 -19 46 -19 4 0 79
105 165 233 l158 233 -45 97 -45 97 -76 0 c-67 0 -79 3 -100 25 -18 17 -25 35
-25 64 0 53 7 69 40 86 25 13 51 12 232 -10 111 -14 211 -25 221 -25 28 0 57
-37 57 -73 0 -53 -24 -67 -113 -67 -46 0 -77 -4 -77 -10 0 -6 14 -37 30 -70
l30 -60 476 0 c377 0 475 3 471 13 -3 6 -32 79 -66 161 -93 224 -102 216 242
216 297 0 316 -4 375 -76 69 -84 69 -201 -1 -281 -47 -54 -97 -73 -194 -73
-73 0 -83 2 -97 22 -21 30 -20 91 2 118 22 27 59 29 113 5 39 -18 40 -18 63 4
31 29 40 65 25 94 -24 44 -35 46 -226 47 -101 0 -183 -2 -183 -5 0 -4 290
-707 294 -712 1 -1 22 3 46 9 69 16 217 13 289 -7 229 -60 406 -238 466 -470
20 -77 19 -230 -1 -309 -37 -147 -144 -298 -268 -378 l-59 -38 1041 0 1042 0
0 234 c0 129 -5 280 -10 337 -83 833 -456 1600 -1058 2180 -544 525 -1236 854
-2004 955 -116 15 -574 28 -658 18z"/>
<path d="M3220 4773 c0 -4 77 -173 171 -375 162 -347 173 -368 198 -368 23 1
45 33 221 327 107 179 208 348 223 374 l29 49 -421 0 c-232 0 -421 -3 -421 -7z"/>
<path d="M3021 4627 c-35 -50 -95 -138 -134 -194 l-70 -101 57 -69 c70 -84
118 -178 142 -277 l18 -76 176 0 176 0 25 38 25 38 -170 367 c-94 201 -173
366 -176 367 -3 0 -34 -42 -69 -93z"/>
<path d="M4022 4453 c-87 -147 -190 -319 -226 -381 l-67 -113 15 -46 c19 -55
19 -66 5 -116 -13 -47 -63 -106 -106 -123 -81 -34 -182 -5 -229 66 l-27 40
-177 0 -178 0 -7 -47 c-24 -161 -150 -347 -292 -430 -24 -13 -43 -27 -43 -29
0 -2 368 -4 817 -4 l817 0 -50 31 c-133 83 -243 237 -279 391 -31 131 -11 317
46 430 54 108 152 214 262 283 14 9 9 28 -44 155 -33 80 -64 149 -69 153 -4 5
-80 -112 -168 -260z"/>
<path d="M2285 4339 c-141 -29 -279 -137 -345 -273 -67 -136 -73 -268 -20
-408 46 -123 163 -241 288 -289 86 -33 238 -38 330 -10 83 25 176 84 233 149
46 52 104 166 115 225 l6 37 -201 0 c-186 0 -203 -2 -223 -20 -47 -44 -121
-37 -168 16 -38 43 -40 96 -7 145 19 29 41 41 93 54 6 2 62 76 124 165 87 126
109 164 99 171 -55 36 -233 57 -324 38z"/>
<path d="M4565 4343 c-11 -2 -30 -6 -41 -8 -21 -5 -18 -13 53 -182 40 -98 81
-182 91 -188 9 -5 31 -24 49 -41 27 -26 33 -40 33 -73 0 -85 -56 -138 -134
-128 -77 11 -131 102 -97 166 7 12 -10 64 -66 196 -41 99 -77 182 -79 184 -9
9 -58 -26 -111 -79 -188 -189 -189 -495 -2 -694 158 -169 416 -208 619 -93
125 70 225 213 251 358 38 211 -78 436 -274 533 -96 46 -212 66 -292 49z"/>
<path d="M2626 4060 l-105 -150 186 0 186 0 -6 33 c-10 62 -49 147 -94 207
-24 33 -49 60 -53 60 -5 0 -56 -67 -114 -150z"/>
<path d="M20 3123 c0 -18 25 -190 36 -250 l6 -32 82 -3 81 -3 3 -52 3 -53 -70
0 c-50 0 -71 -4 -71 -12 0 -16 45 -186 66 -250 l16 -48 3334 0 c1834 0 3334 2
3334 4 0 3 15 58 34 123 18 65 37 133 41 151 l7 32 -101 0 -101 0 0 55 0 56
102 -3 c100 -3 102 -4 108 -28 4 -16 14 26 28 120 13 80 25 160 28 178 l5 32
-3486 0 c-3312 0 -3485 -1 -3485 -17z m488 -340 l3 -53 -115 0 -116 0 0 55 0
56 113 -3 112 -3 3 -52z m280 0 l3 -53 -115 0 -116 0 0 55 0 56 113 -3 112 -3
3 -52z m280 0 l3 -53 -115 0 -116 0 0 55 0 56 113 -3 112 -3 3 -52z m280 0 l3
-53 -115 0 -116 0 0 55 0 56 113 -3 112 -3 3 -52z m280 0 l3 -53 -115 0 -116
0 0 55 0 56 113 -3 112 -3 3 -52z m280 0 l3 -53 -115 0 -116 0 0 55 0 56 113
-3 112 -3 3 -52z m280 0 l3 -53 -115 0 -116 0 0 55 0 56 113 -3 112 -3 3 -52z
m280 0 l3 -53 -115 0 -116 0 0 55 0 56 113 -3 112 -3 3 -52z m280 0 l3 -53
-115 0 -116 0 0 55 0 56 113 -3 112 -3 3 -52z m280 0 l3 -53 -115 0 -116 0 0
55 0 56 113 -3 112 -3 3 -52z m280 0 l3 -53 -115 0 -116 0 0 55 0 56 113 -3
112 -3 3 -52z m280 0 l3 -53 -115 0 -116 0 0 55 0 56 113 -3 112 -3 3 -52z
m280 0 l3 -53 -115 0 -116 0 0 55 0 56 113 -3 112 -3 3 -52z m280 0 l3 -53
-115 0 -116 0 0 55 0 56 113 -3 112 -3 3 -52z m280 0 l3 -53 -115 0 -116 0 0
55 0 56 113 -3 112 -3 3 -52z m280 0 l3 -53 -115 0 -116 0 0 55 0 56 113 -3
112 -3 3 -52z m280 0 l3 -53 -115 0 -116 0 0 55 0 56 113 -3 112 -3 3 -52z
m280 0 l3 -53 -115 0 -116 0 0 55 0 56 113 -3 112 -3 3 -52z m280 0 l3 -53
-115 0 -116 0 0 55 0 56 113 -3 112 -3 3 -52z m280 0 l3 -53 -115 0 -116 0 0
55 0 56 113 -3 112 -3 3 -52z m280 0 l3 -53 -115 0 -116 0 0 55 0 56 113 -3
112 -3 3 -52z m280 0 l3 -53 -115 0 -116 0 0 55 0 56 113 -3 112 -3 3 -52z
m280 0 l3 -53 -115 0 -116 0 0 55 0 56 113 -3 112 -3 3 -52z"/>
<path d="M223 2288 c2 -7 19 -51 37 -98 66 -170 313 -630 339 -630 4 0 51 61
105 135 86 119 96 138 84 153 -7 9 -98 114 -201 234 l-188 218 -91 0 c-68 0
-89 -3 -85 -12z"/>
<path d="M570 2293 c1 -5 20 -29 43 -55 l42 -46 60 54 60 54 -102 0 c-57 0
-103 -3 -103 -7z"/>
<path d="M842 2197 l-102 -103 277 -321 c153 -177 279 -320 281 -318 2 2 7
193 10 424 l7 421 -185 0 -185 0 -103 -103z"/>
<path d="M1436 2108 c-3 -106 -8 -335 -11 -508 l-5 -316 118 -38 c135 -45 335
-143 446 -220 l78 -53 57 57 c31 32 74 66 96 77 l39 20 -3 99 c-1 55 -8 239
-15 409 l-13 310 -129 177 -129 178 -261 0 -262 0 -6 -192z"/>
<path d="M2126 2288 c8 -13 61 -86 76 -102 4 -6 8 18 8 52 l0 62 -46 0 c-33 0
-43 -3 -38 -12z"/>
<path d="M2334 2254 c3 -26 6 -95 6 -154 l0 -108 376 -516 376 -517 36 33 c91
79 592 563 590 568 -2 3 -156 171 -342 373 l-340 367 -354 0 -355 0 7 -46z"/>
<path d="M3226 2278 c10 -12 210 -229 444 -483 234 -253 431 -467 437 -476 10
-13 5 -22 -30 -58 l-43 -42 -108 118 c-60 65 -112 119 -117 121 -8 3 -639
-593 -639 -604 0 -2 57 25 128 60 294 147 623 274 887 341 l70 18 204 279
c184 252 202 280 189 296 -8 9 -99 115 -203 235 l-187 217 -526 0 -525 0 19
-22z"/>
<path d="M4462 2252 c23 -27 46 -50 49 -53 3 -2 32 20 64 49 l59 52 -108 0
-108 0 44 -48z"/>
<path d="M4702 2197 l-103 -103 278 -322 278 -321 6 152 c4 84 7 275 8 425 l1
272 -183 0 -182 0 -103 -103z"/>
<path d="M5296 2158 c-3 -79 -8 -307 -11 -508 l-5 -366 117 -38 c138 -45 313
-131 436 -213 l88 -59 94 92 95 92 0 63 c0 35 -9 280 -20 544 -11 264 -20 492
-20 508 l0 27 -384 0 -384 0 -6 -142z"/>
<path d="M6194 2213 c4 -49 13 -270 22 -493 8 -223 17 -406 19 -408 1 -2 35
40 74 92 163 217 330 509 430 755 28 68 51 128 51 132 0 5 -135 9 -301 9
l-301 0 6 -87z"/>
<path d="M2354 1730 c3 -19 8 -125 11 -235 3 -110 8 -232 11 -271 l6 -71 62
-7 c126 -13 248 -102 304 -224 30 -64 42 -190 24 -255 -6 -20 -9 -37 -7 -37 3
0 346 189 352 195 2 1 -3 10 -11 20 -13 18 -15 18 -41 1 -15 -10 -31 -14 -35
-9 -4 4 -155 211 -335 458 -179 248 -331 455 -337 460 -6 7 -8 -2 -4 -25z"/>
<path d="M792 1608 c-130 -179 -123 -157 -74 -221 l41 -55 128 5 c70 3 177 0
237 -6 60 -6 111 -9 113 -8 4 5 -340 406 -348 406 -4 1 -47 -54 -97 -121z"/>
<path d="M4591 1523 c-83 -113 -149 -208 -147 -210 1 -2 34 1 72 7 121 17 353
23 468 11 60 -6 111 -9 113 -8 4 5 -340 405 -349 406 -4 1 -75 -92 -157 -206z"/>
<path d="M876 1211 c-15 -6 7 -33 141 -167 87 -87 193 -187 235 -222 l76 -62
91 174 c50 96 91 179 91 184 0 25 -245 78 -425 92 -148 11 -182 12 -209 1z"/>
<path d="M4648 1209 c-355 -27 -772 -154 -1235 -375 l-154 -73 30 -43 c16 -24
105 -146 198 -273 177 -240 194 -258 372 -383 l56 -39 120 18 c281 41 598 132
873 250 l52 23 205 399 c113 220 205 403 205 407 0 23 -254 77 -425 90 -142
11 -142 11 -297 -1z"/>
<path d="M1598 1088 c12 -6 22 -15 22 -20 0 -5 -42 -91 -92 -191 -51 -100 -93
-185 -93 -189 0 -10 104 -84 230 -163 125 -78 311 -176 436 -230 l86 -37 88
58 88 59 -44 7 c-107 19 -215 102 -271 210 -30 57 -33 72 -35 163 l-2 100 -43
32 c-99 75 -355 215 -386 212 -4 0 3 -5 16 -11z"/>
<path d="M5460 1082 l23 -18 -168 -328 c-189 -370 -188 -346 -14 -240 179 108
372 247 488 351 l44 39 -74 49 c-71 47 -294 165 -312 165 -5 0 1 -8 13 -18z"/>
<path d="M2319 1017 c-128 -48 -198 -151 -186 -276 20 -221 285 -321 445 -168
99 94 108 255 21 360 -62 75 -196 115 -280 84z"/>
<path d="M3005 622 c-77 -44 -201 -116 -275 -162 -74 -45 -147 -90 -162 -99
-19 -11 -28 -24 -27 -41 0 -46 25 -180 35 -189 12 -11 161 -47 294 -72 154
-29 335 -48 506 -56 l150 -6 27 46 c15 25 27 51 27 57 0 9 -427 600 -433 600
-1 0 -65 -35 -142 -78z"/>
<path d="M2367 231 l-38 -29 51 -17 c28 -9 53 -15 55 -14 7 8 -11 83 -20 85
-6 2 -27 -10 -48 -25z"/>
<path d="M3680 16 c0 -9 7 -12 21 -9 16 4 17 8 7 14 -19 13 -28 11 -28 -5z"/>
</g>
</svg>
