<svg version="1.0" xmlns="http://www.w3.org/2000/svg" width="933.333" height="933.333" viewBox="0 0 700 700"><path d="M327 .6c-1.9.2-8.4.9-14.5 1.5-74.6 7.4-149.4 42.3-204.4 95.4-29.3 28.3-50.9 57.3-69.1 92.8C16.9 233.4 4.6 277 .9 325c-1 14.3-.9 46.3.2 47.4.3.3 47.6.5 105 .4l104.4-.3-4.6-2.7c-11.4-6.7-22-19.8-26.4-32.5-13.7-39.2 11-79.5 52-85.2 11-1.6 24.9.5 33.7 5 2 1 4.1 1.9 4.6 1.9.4 0 7.9-10.5 16.5-23.3l15.8-23.3-4.5-9.7-4.5-9.7h-7.6c-6.7 0-7.9-.3-10-2.5-1.8-1.7-2.5-3.5-2.5-6.4 0-5.3.7-6.9 4-8.6 2.5-1.3 5.1-1.2 23.2 1 11.1 1.4 21.1 2.5 22.1 2.5 2.8 0 5.7 3.7 5.7 7.3 0 5.3-2.4 6.7-11.3 6.7-4.6 0-7.7.4-7.7 1s1.4 3.7 3 7l3 6h47.6c37.7 0 47.5-.3 47.1-1.3-.3-.6-3.2-7.9-6.6-16.1-9.3-22.4-10.2-21.6 24.2-21.6 29.7 0 31.6.4 37.5 7.6 6.9 8.4 6.9 20.1-.1 28.1-4.7 5.4-9.7 7.3-19.4 7.3-7.3 0-8.3-.2-9.7-2.2-2.1-3-2-9.1.2-11.8 2.2-2.7 5.9-2.9 11.3-.5 3.9 1.8 4 1.8 6.3-.4 3.1-2.9 4-6.5 2.5-9.4-2.4-4.4-3.5-4.6-22.6-4.7-10.1 0-18.3.2-18.3.5 0 .4 29 70.7 29.4 71.2.1.1 2.2-.3 4.6-.9 6.9-1.6 21.7-1.3 28.9.7 22.9 6 40.6 23.8 46.6 47 2 7.7 1.9 23-.1 30.9-3.7 14.7-14.4 29.8-26.8 37.8l-5.9 3.8H700v-23.4c0-12.9-.5-28-1-33.7-8.3-83.3-45.6-160-105.8-218-54.4-52.5-123.6-85.4-200.4-95.5C381.2.9 335.4-.4 327 .6z"/><path d="M322 222.7c0 .4 7.7 17.3 17.1 37.5 16.2 34.7 17.3 36.8 19.8 36.8 2.3-.1 4.5-3.3 22.1-32.7 10.7-17.9 20.8-34.8 22.3-37.4l2.9-4.9h-42.1c-23.2 0-42.1.3-42.1.7zM302.1 237.3c-3.5 5-9.5 13.8-13.4 19.4l-7 10.1 5.7 6.9c7 8.4 11.8 17.8 14.2 27.7l1.8 7.6h35.2l2.5-3.8 2.5-3.8-17-36.7c-9.4-20.1-17.3-36.6-17.6-36.7-.3 0-3.4 4.2-6.9 9.3z"/><path d="M402.2 254.7c-8.7 14.7-19 31.9-22.6 38.1l-6.7 11.3 1.5 4.6c1.9 5.5 1.9 6.6.5 11.6-1.3 4.7-6.3 10.6-10.6 12.3-8.1 3.4-18.2.5-22.9-6.6l-2.7-4h-35.5l-.7 4.7c-2.4 16.1-15 34.7-29.2 43-2.4 1.3-4.3 2.7-4.3 2.9 0 .2 36.8.4 81.7.4h81.7l-5-3.1c-13.3-8.3-24.3-23.7-27.9-39.1-3.1-13.1-1.1-31.7 4.6-43 5.4-10.8 15.2-21.4 26.2-28.3 1.4-.9.9-2.8-4.4-15.5-3.3-8-6.4-14.9-6.9-15.3-.4-.5-8 11.2-16.8 26zM228.5 266.1c-14.1 2.9-27.9 13.7-34.5 27.3-6.7 13.6-7.3 26.8-2 40.8 4.6 12.3 16.3 24.1 28.8 28.9 8.6 3.3 23.8 3.8 33 1 8.3-2.5 17.6-8.4 23.3-14.9 4.6-5.2 10.4-16.6 11.5-22.5l.6-3.7h-20.1c-18.6 0-20.3.2-22.3 2-4.7 4.4-12.1 3.7-16.8-1.6-3.8-4.3-4-9.6-.7-14.5 1.9-2.9 4.1-4.1 9.3-5.4.6-.2 6.2-7.6 12.4-16.5 8.7-12.6 10.9-16.4 9.9-17.1-5.5-3.6-23.3-5.7-32.4-3.8z"/><path d="M456.5 265.7c-1.1.2-3 .6-4.1.8-2.1.5-1.8 1.3 5.3 18.2 4 9.8 8.1 18.2 9.1 18.8.9.5 3.1 2.4 4.9 4.1 2.7 2.6 3.3 4 3.3 7.3 0 8.5-5.6 13.8-13.4 12.8-7.7-1.1-13.1-10.2-9.7-16.6.7-1.2-1-6.4-6.6-19.6-4.1-9.9-7.7-18.2-7.9-18.4-.9-.9-5.8 2.6-11.1 7.9-18.8 18.9-18.9 49.5-.2 69.4 15.8 16.9 41.6 20.8 61.9 9.3 12.5-7 22.5-21.3 25.1-35.8 3.8-21.1-7.8-43.6-27.4-53.3-9.6-4.6-21.2-6.6-29.2-4.9zM262.6 294l-10.5 15h37.2l-.6-3.3c-1-6.2-4.9-14.7-9.4-20.7-2.4-3.3-4.9-6-5.3-6-.5 0-5.6 6.7-11.4 15zM2 387.7c0 1.8 2.5 19 3.6 25l.6 3.2 8.2.3 8.1.3.3 5.2.3 5.3h-7c-5 0-7.1.4-7.1 1.2 0 1.6 4.5 18.6 6.6 25l1.6 4.8h333.4c183.4 0 333.4-.2 333.4-.4 0-.3 1.5-5.8 3.4-12.3 1.8-6.5 3.7-13.3 4.1-15.1l.7-3.2H672v-11.1l10.2.3c10 .3 10.2.4 10.8 2.8.4 1.6 1.4-2.6 2.8-12 1.3-8 2.5-16 2.8-17.8l.5-3.2H350.5C19.3 386 2 386.1 2 387.7zm48.8 34 .3 5.3H28v-11.1l11.3.3 11.2.3.3 5.2zm28 0 .3 5.3H56v-11.1l11.3.3 11.2.3.3 5.2zm28 0 .3 5.3H84v-11.1l11.3.3 11.2.3.3 5.2zm28 0 .3 5.3H112v-11.1l11.3.3 11.2.3.3 5.2zm28 0 .3 5.3H140v-11.1l11.3.3 11.2.3.3 5.2zm28 0 .3 5.3H168v-11.1l11.3.3 11.2.3.3 5.2zm28 0 .3 5.3H196v-11.1l11.3.3 11.2.3.3 5.2zm28 0 .3 5.3H224v-11.1l11.3.3 11.2.3.3 5.2zm28 0 .3 5.3H252v-11.1l11.3.3 11.2.3.3 5.2zm28 0 .3 5.3H280v-11.1l11.3.3 11.2.3.3 5.2zm28 0 .3 5.3H308v-11.1l11.3.3 11.2.3.3 5.2zm28 0 .3 5.3H336v-11.1l11.3.3 11.2.3.3 5.2zm28 0 .3 5.3H364v-11.1l11.3.3 11.2.3.3 5.2zm28 0 .3 5.3H392v-11.1l11.3.3 11.2.3.3 5.2zm28 0 .3 5.3H420v-11.1l11.3.3 11.2.3.3 5.2zm28 0 .3 5.3H448v-11.1l11.3.3 11.2.3.3 5.2zm28 0 .3 5.3H476v-11.1l11.3.3 11.2.3.3 5.2zm28 0 .3 5.3H504v-11.1l11.3.3 11.2.3.3 5.2zm28 0 .3 5.3H532v-11.1l11.3.3 11.2.3.3 5.2zm28 0 .3 5.3H560v-11.1l11.3.3 11.2.3.3 5.2zm28 0 .3 5.3H588v-11.1l11.3.3 11.2.3.3 5.2zm28 0 .3 5.3H616v-11.1l11.3.3 11.2.3.3 5.2zm28 0 .3 5.3H644v-11.1l11.3.3 11.2.3.3 5.2zM22.3 471.2c.2.7 1.9 5.1 3.7 9.8 6.6 17 31.3 63 33.9 63 .4 0 5.1-6.1 10.5-13.5 8.6-11.9 9.6-13.8 8.4-15.3-.7-.9-9.8-11.4-20.1-23.4L39.9 470h-9.1c-6.8 0-8.9.3-8.5 1.2zM57 470.7c.1.5 2 2.9 4.3 5.5l4.2 4.6 6-5.4 6-5.4H67.3c-5.7 0-10.3.3-10.3.7zM84.2 480.3 74 490.6l27.7 32.1c15.3 17.7 27.9 32 28.1 31.8.2-.2.7-19.3 1-42.4l.7-42.1h-37l-10.3 10.3zM143.6 489.2c-.3 10.6-.8 33.5-1.1 50.8l-.5 31.6 11.8 3.8c13.5 4.5 33.5 14.3 44.6 22l7.8 5.3 5.7-5.7c3.1-3.2 7.4-6.6 9.6-7.7l3.9-2-.3-9.9c-.1-5.5-.8-23.9-1.5-40.9l-1.3-31-12.9-17.7-12.9-17.8h-52.3l-.6 19.2zM212.6 471.2c.8 1.3 6.1 8.6 7.6 10.2.4.6.8-1.8.8-5.2V470h-4.6c-3.3 0-4.3.3-3.8 1.2zM233.4 474.6c.3 2.6.6 9.5.6 15.4v10.8l37.6 51.6 37.6 51.7 3.6-3.3c9.1-7.9 59.2-56.3 59-56.8-.2-.3-15.6-17.1-34.2-37.3l-34-36.7h-70.9l.7 4.6z"/><path d="M322.6 472.2c1 1.2 21 22.9 44.4 48.3 23.4 25.3 43.1 46.7 43.7 47.6 1 1.3.5 2.2-3 5.8l-4.3 4.2-10.8-11.8c-6-6.5-11.2-11.9-11.7-12.1-.8-.3-63.9 59.3-63.9 60.4 0 .2 5.7-2.5 12.8-6 29.4-14.7 62.3-27.4 88.7-34.1l7-1.8 20.4-27.9c18.4-25.2 20.2-28 18.9-29.6-.8-.9-9.9-11.5-20.3-23.5L425.8 470H320.7l1.9 2.2zM446.2 474.8c2.3 2.7 4.6 5 4.9 5.3.3.2 3.2-2 6.4-4.9l5.9-5.2h-21.6l4.4 4.8zM470.2 480.3l-10.3 10.3 27.8 32.2 27.8 32.1.6-15.2c.4-8.4.7-27.5.8-42.5l.1-27.2h-36.5l-10.3 10.3zM529.6 484.2c-.3 7.9-.8 30.7-1.1 50.8l-.5 36.6 11.7 3.8c13.8 4.5 31.3 13.1 43.6 21.3l8.8 5.9 9.4-9.2 9.5-9.2v-6.3c0-3.5-.9-28-2-54.4s-2-49.2-2-50.8V470h-76.8l-.6 14.2zM619.4 478.7c.4 4.9 1.3 27 2.2 49.3.8 22.3 1.7 40.6 1.9 40.8.1.2 3.5-4 7.4-9.2 16.3-21.7 33-50.9 43-75.5 2.8-6.8 5.1-12.8 5.1-13.2 0-.5-13.5-.9-30.1-.9h-30.1l.6 8.7zM235.4 527c.3 1.9.8 12.5 1.1 23.5.3 11 .8 23.2 1.1 27.1l.6 7.1 6.2.7c12.6 1.3 24.8 10.2 30.4 22.4 3 6.4 4.2 19 2.4 25.5-.6 2-.9 3.7-.7 3.7.3 0 34.6-18.9 35.2-19.5.2-.1-.3-1-1.1-2-1.3-1.8-1.5-1.8-4.1-.1-1.5 1-3.1 1.4-3.5.9-.4-.4-15.5-21.1-33.5-45.8-17.9-24.8-33.1-45.5-33.7-46-.6-.7-.8.2-.4 2.5zM79.2 539.2c-13 17.9-12.3 15.7-7.4 22.1l4.1 5.5 12.8-.5c7-.3 17.7 0 23.7.6s11.1.9 11.3.8c.4-.5-34-40.6-34.8-40.6-.4-.1-4.7 5.4-9.7 12.1zM459.1 547.7c-8.3 11.3-14.9 20.8-14.7 21 .1.2 3.4-.1 7.2-.7 12.1-1.7 35.3-2.3 46.8-1.1 6 .6 11.1.9 11.3.8.4-.5-34-40.5-34.9-40.6-.4-.1-7.5 9.2-15.7 20.6zM87.6 578.9c-1.5.6.7 3.3 14.1 16.7 8.7 8.7 19.3 18.7 23.5 22.2l7.6 6.2 9.1-17.4c5-9.6 9.1-17.9 9.1-18.4 0-2.5-24.5-7.8-42.5-9.2-14.8-1.1-18.2-1.2-20.9-.1zM464.8 579.1c-35.5 2.7-77.2 15.4-123.5 37.5l-15.4 7.3 3 4.3c1.6 2.4 10.5 14.6 19.8 27.3 17.7 24 19.4 25.8 37.2 38.3l5.6 3.9 12-1.8c28.1-4.1 59.8-13.2 87.3-25l5.2-2.3 20.5-39.9c11.3-22 20.5-40.3 20.5-40.7 0-2.3-25.4-7.7-42.5-9-14.2-1.1-14.2-1.1-29.7.1zM159.8 591.2c1.2.6 2.2 1.5 2.2 2s-4.2 9.1-9.2 19.1c-5.1 10-9.3 18.5-9.3 18.9 0 1 10.4 8.4 23 16.3 12.5 7.8 31.1 17.6 43.6 23l8.6 3.7 8.8-5.8 8.8-5.9-4.4-.7c-10.7-1.9-21.5-10.2-27.1-21-3-5.7-3.3-7.2-3.5-16.3l-.2-10-4.3-3.2c-9.9-7.5-35.5-21.5-38.6-21.2-.4 0 .3.5 1.6 1.1zM546 591.8l2.3 1.8-16.8 32.8c-18.9 37-18.8 34.6-1.4 24 17.9-10.8 37.2-24.7 48.8-35.1l4.4-3.9-7.4-4.9c-7.1-4.7-29.4-16.5-31.2-16.5-.5 0 .1.8 1.3 1.8z"/><path d="M231.9 598.3c-12.8 4.8-19.8 15.1-18.6 27.6 2 22.1 28.5 32.1 44.5 16.8 9.9-9.4 10.8-25.5 2.1-36-6.2-7.5-19.6-11.5-28-8.4zM300.5 637.8c-7.7 4.4-20.1 11.6-27.5 16.2-7.4 4.5-14.7 9-16.2 9.9-1.9 1.1-2.8 2.4-2.7 4.1 0 4.6 2.5 18 3.5 18.9 1.2 1.1 16.1 4.7 29.4 7.2 15.4 2.9 33.5 4.8 50.6 5.6l15 .6 2.7-4.6c1.5-2.5 2.7-5.1 2.7-5.7 0-.9-42.7-60-43.3-60-.1 0-6.5 3.5-14.2 7.8zM236.7 676.9l-3.8 2.9 5.1 1.7c2.8.9 5.3 1.5 5.5 1.4.7-.8-1.1-8.3-2-8.5-.6-.2-2.7 1-4.8 2.5zM368 698.4c0 .9.7 1.2 2.1.9 1.6-.4 1.7-.8.7-1.4-1.9-1.3-2.8-1.1-2.8.5z"/></svg>